<svg width="210" height="305" viewBox="0 0 210 305" fill="none" xmlns="http://www.w3.org/2000/svg">
<rect width="210" height="305" fill="#D8F7E4"/>
<g clip-path="url(#clip0_3_130)">
<path d="M195.967 286.172H190.983V305H195.967V286.172Z" fill="#C16511"/>
<path d="M193.464 295.899C200.387 295.899 206 290.277 206 283.34C206 276.404 200.387 270.781 193.464 270.781C186.541 270.781 180.928 276.404 180.928 283.34C180.928 290.277 186.541 295.899 193.464 295.899Z" fill="#3BA83E"/>
<path d="M196.355 290.15C191.026 290.15 186.689 285.826 186.689 280.465C186.689 275.58 190.314 271.538 195.018 270.889C194.521 270.824 194.003 270.781 193.486 270.781C186.559 270.781 180.95 276.402 180.95 283.34C180.95 290.279 186.559 295.899 193.486 295.899C200.412 295.899 206.022 290.279 206.022 283.34C206.022 282.822 205.978 282.303 205.914 281.806C205.266 286.518 201.232 290.15 196.355 290.15Z" fill="#2F8C2F"/>
<path d="M137.214 304.978H49.7208V94.8022L137.214 37H176.246L137.214 304.978Z" fill="#575AA4"/>
<path d="M176.246 304.978H88.7528V94.8022L176.246 37V304.978Z" fill="#6BC8ED"/>
<path d="M176.246 49.3862H157.474L144.075 58.2489H176.246V49.3862Z" fill="#9BE3F9"/>
<path d="M176.246 65.9227H132.467L119.046 74.7854H176.246V65.9227Z" fill="#9BE3F9"/>
<path d="M176.246 82.4593H107.438L94.0391 91.3004H176.246V82.4593Z" fill="#9BE3F9"/>
<path d="M176.246 98.9742H88.7528V107.837H176.246V98.9742Z" fill="#9BE3F9"/>
<path d="M176.246 115.511H88.7528V124.373H176.246V115.511Z" fill="#9BE3F9"/>
<path d="M176.246 132.047H88.7528V140.91H176.246V132.047Z" fill="#9BE3F9"/>
<path d="M176.246 148.562H88.7528V157.425H176.246V148.562Z" fill="#9BE3F9"/>
<path d="M176.246 165.099H88.7528V173.961H176.246V165.099Z" fill="#9BE3F9"/>
<path d="M176.246 181.614H88.7528V190.476H176.246V181.614Z" fill="#9BE3F9"/>
<path d="M176.246 198.15H88.7528V207.013H176.246V198.15Z" fill="#9BE3F9"/>
<path d="M176.246 214.687H88.7528V223.549H176.246V214.687Z" fill="#9BE3F9"/>
<path d="M176.246 231.202H88.7528V240.064H176.246V231.202Z" fill="#9BE3F9"/>
<path d="M176.246 247.738H88.7528V256.601H176.246V247.738Z" fill="#9BE3F9"/>
<path d="M176.246 264.275H88.7528V273.137H176.246V264.275Z" fill="#9BE3F9"/>
<path d="M126.21 120.31H32.4595V304.978H126.21V120.31Z" fill="#A0CDF2"/>
<path d="M79.5612 120.31H21.4771V304.978H79.5612V120.31Z" fill="#406DA3"/>
<path d="M88.7528 94.8022H49.7208V120.31H88.7528V94.8022Z" fill="#4B508C"/>
<path d="M193.486 262.005H99.7353V279.903H193.486V262.005Z" fill="#A0CDF2"/>
<path d="M132.489 262.005H88.7528V279.903H132.489V262.005Z" fill="#406DA3"/>
<path d="M168.155 279.925H137.149V305H168.155V279.925Z" fill="#2E557C"/>
<path d="M126.123 279.925H95.1179V305H126.123V279.925Z" fill="#85B9DD"/>
<path d="M168.176 279.925H161.595V305H168.176V279.925Z" fill="#406DA3"/>
<path d="M41.7806 123.703H26.5907V138.921H41.7806V123.703Z" fill="#6BC8ED"/>
<path d="M58.0062 123.703H42.8163V138.921H58.0062V123.703Z" fill="#6BC8ED"/>
<path d="M74.2318 123.703H59.0419V138.921H74.2318V123.703Z" fill="#A0CDF2"/>
<path d="M41.7806 140.326H26.5907V155.544H41.7806V140.326Z" fill="#A0CDF2"/>
<path d="M58.0062 140.326H42.8163V155.544H58.0062V140.326Z" fill="#6BC8ED"/>
<path d="M74.2318 140.326H59.0419V155.544H74.2318V140.326Z" fill="#6BC8ED"/>
<path d="M41.7806 156.971H26.5907V172.189H41.7806V156.971Z" fill="#6BC8ED"/>
<path d="M58.0062 156.971H42.8163V172.189H58.0062V156.971Z" fill="#A0CDF2"/>
<path d="M74.2318 156.971H59.0419V172.189H74.2318V156.971Z" fill="#6BC8ED"/>
<path d="M41.7806 173.594H26.5907V188.812H41.7806V173.594Z" fill="#6BC8ED"/>
<path d="M58.0062 173.594H42.8163V188.812H58.0062V173.594Z" fill="#6BC8ED"/>
<path d="M74.2318 173.594H59.0419V188.812H74.2318V173.594Z" fill="#A0CDF2"/>
<path d="M41.7806 190.239H26.5907V205.457H41.7806V190.239Z" fill="#6BC8ED"/>
<path d="M58.0062 190.239H42.8163V205.457H58.0062V190.239Z" fill="#6BC8ED"/>
<path d="M74.2318 190.239H59.0419V205.457H74.2318V190.239Z" fill="#A0CDF2"/>
<path d="M41.7806 206.862H26.5907V222.08H41.7806V206.862Z" fill="#6BC8ED"/>
<path d="M58.0062 206.862H42.8163V222.08H58.0062V206.862Z" fill="#6BC8ED"/>
<path d="M74.2318 206.862H59.0419V222.08H74.2318V206.862Z" fill="#6BC8ED"/>
<path d="M41.7806 223.485H26.5907V238.702H41.7806V223.485Z" fill="#A0CDF2"/>
<path d="M58.0062 223.485H42.8163V238.702H58.0062V223.485Z" fill="#A0CDF2"/>
<path d="M74.2318 223.485H59.0419V238.702H74.2318V223.485Z" fill="#6BC8ED"/>
<path d="M41.7806 240.129H26.5907V255.347H41.7806V240.129Z" fill="#6BC8ED"/>
<path d="M58.0062 240.129H42.8163V255.347H58.0062V240.129Z" fill="#6BC8ED"/>
<path d="M74.2318 240.129H59.0419V255.347H74.2318V240.129Z" fill="#6BC8ED"/>
<path d="M41.7806 256.752H26.5907V271.97H41.7806V256.752Z" fill="#6BC8ED"/>
<path d="M58.0062 256.752H42.8163V271.97H58.0062V256.752Z" fill="#6BC8ED"/>
<path d="M74.2318 256.752H59.0419V271.97H74.2318V256.752Z" fill="#A0CDF2"/>
<path d="M97.9229 131.312H85.9263V136.479H97.9229V131.312Z" fill="#9BE3F9"/>
<path d="M103.921 138.316H91.9246V143.482H103.921V138.316Z" fill="#9BE3F9"/>
<path d="M122.628 121.779H110.631V126.946H122.628V121.779Z" fill="#9BE3F9"/>
<path d="M94.7511 228.802H82.7545V233.969H94.7511V228.802Z" fill="#9BE3F9"/>
<path d="M122.628 191.644H110.631V196.81H122.628V191.644Z" fill="#9BE3F9"/>
<path d="M100.749 183.559H88.7528V188.725H100.749V183.559Z" fill="#9BE3F9"/>
<path d="M24.9509 278.758H18.0032V305H24.9509V278.758Z" fill="#C16511"/>
<path d="M33.8274 287.186C40.6526 280.348 40.6526 269.261 33.8274 262.424C27.0022 255.586 15.9363 255.586 9.11111 262.424C2.2859 269.261 2.2859 280.348 9.1111 287.186C15.9363 294.023 27.0022 294.023 33.8274 287.186Z" fill="#3BA83E"/>
<path d="M25.4903 284.291C18.0464 284.291 12.0265 278.239 12.0265 270.803C12.0265 263.994 17.0754 258.373 23.6347 257.444C22.9227 257.357 22.2106 257.293 21.4986 257.293C11.8323 257.293 4.02158 265.139 4.02158 274.802C4.02158 284.464 11.8539 292.311 21.4986 292.311C31.1433 292.311 38.9756 284.464 38.9756 274.802C38.9756 274.067 38.9109 273.354 38.8246 272.662C37.9184 279.233 32.3085 284.291 25.4903 284.291Z" fill="#2F8C2F"/>
<path d="M97.6208 286.172H92.6366V305H97.6208V286.172Z" fill="#C16511"/>
<path d="M95.1179 295.899C102.041 295.899 107.654 290.277 107.654 283.34C107.654 276.404 102.041 270.781 95.1179 270.781C88.1945 270.781 82.5819 276.404 82.5819 283.34C82.5819 290.277 88.1945 295.899 95.1179 295.899Z" fill="#3BA83E"/>
<path d="M97.9876 290.15C92.6582 290.15 88.3213 285.826 88.3213 280.465C88.3213 275.58 91.9461 271.538 96.6498 270.889C96.1536 270.824 95.6357 270.781 95.1179 270.781C88.1918 270.781 82.5819 276.402 82.5819 283.34C82.5819 290.279 88.1918 295.899 95.1179 295.899C102.044 295.899 107.654 290.279 107.654 283.34C107.654 282.822 107.611 282.303 107.546 281.806C106.899 286.518 102.864 290.15 97.9876 290.15Z" fill="#2F8C2F"/>
</g>
<defs>
<clipPath id="clip0_3_130">
<rect width="202" height="268" fill="white" transform="translate(4 37)"/>
</clipPath>
</defs>
</svg>
