<svg width="152" height="33" viewBox="0 0 152 33" fill="none" xmlns="http://www.w3.org/2000/svg">
<path d="M55.1317 32.9681C53.765 32.9681 52.5487 32.6674 51.4827 32.0661C50.4167 31.4647 49.583 30.6311 48.9817 29.5651C48.4077 28.4991 48.1207 27.2827 48.1207 25.9161V24.8911L52.3027 24.4401V25.5061C52.3027 26.5447 52.5487 27.3647 53.0407 27.9661C53.5327 28.5674 54.216 28.8681 55.0907 28.8681C55.938 28.8681 56.6077 28.6221 57.0997 28.1301C57.619 27.6381 57.8787 26.9684 57.8787 26.1211C57.8787 25.1917 57.6054 24.3034 57.0587 23.4561C56.5394 22.6087 55.487 21.4334 53.9017 19.9301C51.7697 17.9074 50.3074 16.2264 49.5147 14.8871C48.7494 13.5477 48.3667 12.0854 48.3667 10.5001C48.3667 8.34073 48.9544 6.6324 50.1297 5.37506C51.305 4.0904 52.9177 3.44806 54.9677 3.44806C57.0177 3.44806 58.6304 4.0904 59.8057 5.37506C60.981 6.65973 61.5687 8.38173 61.5687 10.5411V11.2791L57.3867 11.7301V10.9101C57.3867 9.81673 57.1817 8.98307 56.7717 8.40906C56.3617 7.83507 55.774 7.54807 55.0087 7.54807C54.2434 7.54807 53.6557 7.7804 53.2457 8.24506C52.8357 8.70973 52.6307 9.39306 52.6307 10.2951C52.6307 11.1971 52.904 12.0717 53.4507 12.9191C53.9974 13.7391 55.0497 14.9281 56.6077 16.4861C58.7397 18.6181 60.1884 20.3401 60.9537 21.6521C61.7464 22.9367 62.1427 24.3581 62.1427 25.9161C62.1427 27.2827 61.842 28.4991 61.2407 29.5651C60.6667 30.6311 59.8467 31.4647 58.7807 32.0661C57.7147 32.6674 56.4984 32.9681 55.1317 32.9681Z" fill="#435EBE"/>
<path d="M72.401 32.5581V3.85806H76.747V15.9531H81.913V3.85806H86.259V32.5581H81.913V20.0531H76.747V32.5581H72.401Z" fill="#435EBE"/>
<path d="M117.341 3.85806V32.5581H112.995V12.8781L108.936 32.5581H105.902L101.843 12.8781V32.5581H97.5792V3.85806H103.729L107.501 22.1851L111.109 3.85806H117.341Z" fill="#435EBE"/>
<path d="M134.67 32.9681C133.303 32.9681 132.087 32.6674 131.021 32.0661C129.955 31.4647 129.121 30.6311 128.52 29.5651C127.946 28.4991 127.659 27.2827 127.659 25.9161V24.8911L131.841 24.4401V25.5061C131.841 26.5447 132.087 27.3647 132.579 27.9661C133.071 28.5674 133.754 28.8681 134.629 28.8681C135.476 28.8681 136.146 28.6221 136.638 28.1301C137.157 27.6381 137.417 26.9684 137.417 26.1211C137.417 25.1917 137.144 24.3034 136.597 23.4561C136.078 22.6087 135.025 21.4334 133.44 19.9301C131.308 17.9074 129.846 16.2264 129.053 14.8871C128.288 13.5477 127.905 12.0854 127.905 10.5001C127.905 8.34073 128.493 6.6324 129.668 5.37506C130.843 4.0904 132.456 3.44806 134.506 3.44806C136.556 3.44806 138.169 4.0904 139.344 5.37506C140.519 6.65973 141.107 8.38173 141.107 10.5411V11.2791L136.925 11.7301V10.9101C136.925 9.81673 136.72 8.98307 136.31 8.40906C135.9 7.83507 135.312 7.54807 134.547 7.54807C133.782 7.54807 133.194 7.7804 132.784 8.24506C132.374 8.70973 132.169 9.39306 132.169 10.2951C132.169 11.1971 132.442 12.0717 132.989 12.9191C133.536 13.7391 134.588 14.9281 136.146 16.4861C138.278 18.6181 139.727 20.3401 140.492 21.6521C141.285 22.9367 141.681 24.3581 141.681 25.9161C141.681 27.2827 141.38 28.4991 140.779 29.5651C140.205 30.6311 139.385 31.4647 138.319 32.0661C137.253 32.6674 136.037 32.9681 134.67 32.9681Z" fill="#435EBE"/>
<path d="M0 33H14.162V0L0 5.92309V33Z" fill="#435EBE"/>
<path d="M17.6922 33H31.8542V5.92308L17.6922 11.8462V33Z" fill="#41BBDD"/>
</svg>
